<svg version="1.1" id="Layer_1" xmlns="http://www.w3.org/2000/svg" xmlns:xlink="http://www.w3.org/1999/xlink" x="0px" y="0px"
	width="142" height="24" viewBox="0 0 142 24" fill="none" enable-background="new 0 0 1024 1024" xml:space="preserve">
	<circle cx="138" cy="16" r="4" fill="#56d79f"/>
<path fill="#000000" opacity="1.000000" stroke="none" 
	d="
M584.677612,490.011047 
	C584.677063,485.207642 584.677063,480.901428 584.677063,476.796692 
	C587.395386,475.540955 588.616211,477.360535 589.981262,478.334045 
	C596.212097,482.777832 602.361389,487.336151 608.528503,491.868927 
	C613.223755,495.319855 615.632812,499.416138 615.302856,505.801239 
	C614.675903,517.933777 615.111023,530.122803 615.174683,542.288025 
	C615.186646,544.566345 614.814087,547.488953 617.633118,548.247314 
	C620.811584,549.102417 624.268921,549.255005 627.438843,547.969604 
	C628.797424,547.418762 628.651672,545.719360 628.652100,544.385193 
	C628.658936,523.386230 628.629333,502.387146 628.692932,481.388397 
	C628.700378,478.931793 627.686035,477.347260 625.793762,475.979645 
	C605.267456,461.143982 584.761536,446.279968 564.258545,431.412018 
	C561.967407,429.750549 559.760681,429.390381 557.516724,431.485260 
	C553.845825,434.912262 549.684143,437.671783 545.466248,440.367035 
	C542.169739,442.473541 542.255737,444.439972 545.549072,446.767181 
	C553.023376,452.048889 560.333008,457.564087 567.693481,463.006195 
	C572.360474,466.456848 575.223450,470.446625 574.241455,476.915955 
	C571.605896,494.278564 572.721069,511.781830 572.843567,529.258057 
	C572.952271,544.773743 576.085571,560.090515 575.428589,575.627808 
	C575.380127,576.773010 575.422241,577.921936 575.422241,579.354797 
	C569.409424,581.084290 563.353027,579.859680 557.552795,579.627563 
	C541.551758,578.987305 525.533447,580.085999 509.585693,579.092407 
	C495.904449,578.239929 482.324524,578.822449 468.703125,579.536682 
	C462.314667,579.871704 457.671509,575.408752 457.669678,569.013672 
	C457.660187,535.681885 457.724640,502.349884 457.583893,469.018707 
	C457.567230,465.076660 458.807465,462.580109 462.037109,460.331635 
	C470.238068,454.622101 478.199615,448.568085 486.234772,442.621887 
	C487.281158,441.847473 488.566010,441.253448 489.150421,439.171997 
	C486.032349,435.242981 481.379547,432.692200 477.040863,429.789520 
	C475.943420,429.055328 474.733185,429.631134 473.732788,430.226990 
	C471.306335,431.672211 468.717194,432.952911 466.579285,434.756958 
	C449.497559,449.171387 431.310822,462.206390 412.834564,474.621124 
	C404.107056,480.485413 401.450195,486.519623 401.858337,496.091400 
	C402.489899,510.902100 402.145355,525.752319 402.574677,540.575317 
	C402.677399,544.121643 401.836761,548.956726 408.432037,548.775940 
	C416.660675,548.550415 416.670654,548.874329 416.672272,540.535645 
	C416.675018,526.203003 416.755280,511.869568 416.619202,497.538208 
	C416.587494,494.197662 417.593719,491.959473 420.424805,490.059082 
	C425.814667,486.441101 430.907104,482.382996 436.238647,478.673767 
	C437.987610,477.456940 439.632355,474.729401 442.255493,476.653076 
	C444.786407,478.509094 447.227081,480.636505 447.173340,484.312683 
	C447.031982,493.977386 447.485870,503.685486 446.721771,513.298340 
	C445.526337,528.338074 446.843414,543.255371 447.589233,558.219238 
	C447.879303,564.038757 447.922089,569.870850 448.059174,575.697632 
	C448.127899,578.619751 446.801117,579.854065 443.764740,579.714661 
	C424.114777,578.812439 404.451233,579.155762 384.791412,579.235107 
	C376.482300,579.268677 372.679016,575.555786 372.677216,567.239990 
	C372.670074,534.408203 372.706604,501.576294 372.621765,468.744690 
	C372.613312,465.478577 373.417053,463.170044 376.210022,461.147949 
	C406.029816,439.558685 435.825500,417.934509 465.448700,396.077271 
	C469.699585,392.940735 472.540527,393.046631 476.660583,396.225922 
	C487.462646,404.561584 498.734772,412.285614 509.632050,420.502075 
	C512.320251,422.528870 514.101562,422.275970 516.601013,420.445129 
	C528.290894,411.882019 540.166199,403.570587 551.794556,394.926147 
	C554.640625,392.810394 556.582947,393.046417 559.259216,395.009430 
	C589.187988,416.961853 619.185303,438.820831 649.156372,460.715698 
	C650.499512,461.696899 651.690979,462.900604 653.085571,463.793823 
	C657.605652,466.689056 658.825195,470.362091 658.557739,475.979218 
	C657.471924,498.780426 657.643372,521.616089 658.744751,544.433655 
	C659.234619,554.580811 659.492188,564.739136 659.970947,574.886902 
	C660.148560,578.651306 658.663757,579.565674 654.927002,579.519958 
	C635.433167,579.281494 615.934814,579.317444 596.438660,579.401917 
	C589.139709,579.433533 584.678955,575.315125 584.677307,568.003296 
	C584.671570,542.171631 584.677002,516.339905 584.677612,490.011047 
M487.183533,505.499878 
	C487.419891,518.150146 486.841644,530.810547 487.777649,543.454712 
	C488.070679,547.412903 489.821716,548.802429 493.827118,548.746826 
	C508.651245,548.540955 523.481018,548.523804 538.305481,548.702026 
	C542.531250,548.752808 543.750732,547.167725 543.722778,543.129822 
	C543.581055,522.639771 543.596802,502.147858 543.719666,481.657623 
	C543.738037,478.590179 542.541626,476.701233 540.182861,475.052765 
	C534.995239,471.427399 529.899536,467.670654 524.765381,463.968689 
	C518.101379,459.163605 516.854736,459.099060 510.751801,464.930267 
	C505.169159,470.264313 498.786835,474.515991 492.353333,478.592712 
	C488.902283,480.779510 487.405579,483.319550 487.322968,487.014160 
	C487.192657,492.840912 487.224487,498.671234 487.183533,505.499878 
z"/>
<path fill="#000000" opacity="1.000000" stroke="none" 
	d="
M534.882568,611.118591 
	C533.006348,606.605591 538.283936,607.707275 539.008240,604.729065 
	C537.427490,602.932983 535.614990,600.873657 533.877563,598.899658 
	C532.335999,599.017334 530.820129,600.363770 531.170593,600.837708 
	C534.423340,605.236694 531.077026,610.068481 532.323914,614.540405 
	C533.870789,620.088318 532.621155,621.592529 526.827881,620.984436 
	C521.855957,620.462585 516.463257,621.720215 512.402161,617.208313 
	C510.894531,615.533386 509.600433,614.142395 509.640167,611.698608 
	C509.751068,604.879211 509.764252,598.054871 509.625458,591.236328 
	C509.562195,588.128540 510.566406,586.771057 513.876953,586.673523 
	C521.355103,586.453491 528.828979,585.859436 532.531677,594.910950 
	C534.632935,592.390808 535.051575,589.309265 537.797180,587.878540 
	C542.103577,585.634644 546.370239,586.296387 551.187378,591.256409 
	C556.130798,596.346497 558.393616,595.826538 551.863708,601.865662 
	C552.248230,603.989136 554.222229,604.954163 555.386658,606.513733 
	C557.737366,609.662415 557.752930,615.970032 555.369507,618.680786 
	C552.916321,621.471130 547.540039,621.983215 543.921204,619.342041 
	C540.729309,617.012329 537.313599,614.840881 534.882568,611.118591 
z"/>
<path fill="#000000" opacity="1.000000" stroke="none" 
	d="
M410.648682,596.049805 
	C410.698914,586.760803 410.714661,587.070068 419.666687,586.614380 
	C425.040405,586.340881 429.022461,587.919373 432.096252,592.197815 
	C433.536377,594.202332 434.720337,596.834229 433.391327,598.668091 
	C431.757385,600.922791 433.154846,602.579834 433.036560,604.487305 
	C432.768402,608.811707 432.110870,613.008118 433.948608,617.224670 
	C434.547028,618.597717 433.628693,620.384155 431.837982,620.605164 
	C427.059357,621.194885 422.069366,622.057251 417.620087,619.793152 
	C413.249054,617.568848 409.768768,614.462402 410.565186,608.505859 
	C411.089417,604.584656 410.649658,600.534607 410.648682,596.049805 
z"/>
<path fill="#000000" opacity="1.000000" stroke="none" 
	d="
M408.998779,620.853882 
	C404.659790,621.829163 401.661224,619.580078 398.496796,617.249329 
	C396.477234,620.315369 393.876953,621.819214 390.790436,619.937378 
	C387.526855,617.947632 383.448700,616.547546 383.620117,611.359192 
	C383.845154,604.548035 383.743134,597.722900 383.642731,590.905762 
	C383.599640,587.981079 384.735138,586.981628 387.704468,586.653809 
	C396.082916,585.728760 401.598877,590.064026 406.272308,596.086914 
	C408.171539,598.534485 408.245056,601.609619 406.811218,604.146851 
	C404.450409,608.324646 405.667236,611.625000 408.082886,615.177795 
	C409.114258,616.694763 411.590271,618.321289 408.998779,620.853882 
z"/>
<path fill="#000000" opacity="1.000000" stroke="none" 
	d="
M581.969910,600.028259 
	C584.218384,597.265869 585.201050,593.883362 586.528870,590.674072 
	C588.352417,586.266357 591.260193,585.336426 594.979370,588.236206 
	C596.664490,589.550049 598.460510,591.034546 599.468140,592.851074 
	C604.203735,601.388489 607.092468,610.705200 610.923523,619.757507 
	C607.070251,622.047241 604.192322,620.772766 601.342468,618.818237 
	C598.092285,616.589233 594.777466,613.993347 592.228210,619.711914 
	C591.803711,620.664001 590.655151,620.797668 589.632568,620.916382 
	C582.052490,621.795654 576.612061,614.712646 579.578308,607.777344 
	C580.556641,605.490051 581.721680,603.274414 581.984497,600.368896 
	C581.999329,599.995544 581.969910,600.028259 581.969910,600.028259 
z"/>
<path fill="#000000" opacity="1.000000" stroke="none" 
	d="
M445.790527,587.442139 
	C450.793091,586.584351 455.593079,589.148193 458.102020,594.691956 
	C461.585510,602.389099 464.454926,610.364990 467.537903,618.240845 
	C467.754913,618.795166 467.566315,619.508362 467.566315,620.246338 
	C463.755981,622.024475 460.896271,620.430664 457.966156,618.227539 
	C454.965240,615.971191 451.754822,614.321594 449.707092,619.481445 
	C449.311890,620.477234 448.401489,620.950195 447.341553,621.057068 
	C442.478638,621.547546 439.252014,618.578064 436.103271,615.598267 
	C433.566803,613.197815 435.898285,610.914185 436.726074,608.806030 
	C439.509796,601.716797 442.542633,594.725342 445.790527,587.442139 
z"/>
<path fill="#000000" opacity="1.000000" stroke="none" 
	d="
M640.733643,620.381470 
	C634.684937,617.645081 631.745361,613.689514 632.548279,606.948181 
	C633.172729,601.705078 632.745178,596.327515 632.654053,591.012024 
	C632.604492,588.119568 633.723389,586.607910 636.725891,586.755005 
	C642.660828,587.045654 649.282898,584.926697 653.412170,591.530090 
	C653.937134,592.369507 655.041626,593.293579 654.920532,594.018433 
	C654.033691,599.323120 656.457275,604.814453 654.271973,609.919312 
	C653.349426,612.074280 654.906860,612.975952 655.364624,614.407532 
	C656.867859,619.108887 655.502441,620.888916 650.549866,620.647461 
	C647.405334,620.494141 644.251892,620.526062 640.733643,620.381470 
z"/>
<path fill="#000000" opacity="1.000000" stroke="none" 
	d="
M582.012878,599.978149 
	C577.065674,600.616394 575.410828,603.255066 576.378784,608.226196 
	C576.905273,610.930542 576.174438,613.856934 576.258362,616.675781 
	C576.379456,620.744629 574.258972,621.608826 570.843384,620.727722 
	C565.436401,619.332825 561.805847,614.407288 561.672119,608.739075 
	C561.558899,603.937561 562.987061,598.790222 557.687439,595.253845 
	C555.637451,593.885925 556.480225,590.848389 556.946167,588.636719 
	C557.458801,586.203491 559.799622,586.852905 561.531067,586.761292 
	C563.523682,586.655884 565.525513,586.722839 567.523376,586.718750 
	C577.179810,586.698975 580.432495,589.510193 581.989380,599.632080 
	C581.969910,600.028259 581.999329,599.995544 582.012878,599.978149 
z"/>
<path fill="#000000" opacity="1.000000" stroke="none" 
	d="
M630.119019,592.297729 
	C631.744202,595.860718 631.933289,598.807739 628.266907,600.703186 
	C626.633911,601.547302 626.596008,602.871277 626.598633,604.479309 
	C626.605286,608.631592 626.369324,612.783569 626.280212,616.936829 
	C626.235352,619.029297 625.535278,620.403320 623.209595,620.689270 
	C618.562683,621.260620 611.939270,615.788086 611.745178,611.029602 
	C611.636658,608.369751 611.618713,605.698608 611.730408,603.039673 
	C611.841675,600.394958 611.435364,598.076416 609.013611,596.514282 
	C606.059265,594.608582 606.286804,591.591064 606.943481,588.881592 
	C607.714661,585.699341 610.732300,586.785095 612.859497,586.791687 
	C619.017212,586.810852 625.793457,585.079407 630.119019,592.297729 
z"/>
<path fill="#000000" opacity="1.000000" stroke="none" 
	d="
M476.867676,587.567017 
	C482.044373,590.808838 484.199402,595.097107 483.382782,600.822571 
	C482.867432,604.435608 484.113098,607.281616 487.138336,609.422729 
	C488.200989,610.174866 489.088074,611.233337 489.895416,612.275696 
	C491.532898,614.389954 491.966492,617.037720 491.192108,619.362915 
	C490.310883,622.008789 487.533142,621.003235 485.500092,621.007812 
	C483.023224,621.013367 480.465424,621.042053 478.084442,620.470154 
	C472.431183,619.112366 469.678131,615.284668 469.666138,609.380005 
	C469.654694,603.737000 469.639008,598.093811 469.673645,592.451050 
	C469.710083,586.511475 470.245941,586.132812 476.867676,587.567017 
z"/>
<path fill="#000000" opacity="1.000000" stroke="none" 
	d="
M444.845215,622.791260 
	C449.849091,622.625610 457.521210,628.822327 458.138184,633.154907 
	C458.636444,636.653870 455.844452,639.716797 452.529663,638.835144 
	C447.860321,637.593140 444.199402,634.527649 441.916107,630.389954 
	C440.321228,627.499634 441.183350,624.547607 444.845215,622.791260 
z"/>
<path fill="#000000" opacity="1.000000" stroke="none" 
	d="
M495.619843,626.272461 
	C496.882568,627.399231 497.983826,628.182617 498.830811,629.181641 
	C501.106140,631.865112 501.940338,634.868958 499.235565,637.646484 
	C496.751831,640.197021 493.990936,638.952576 491.585510,637.258484 
	C489.695343,635.927429 487.968689,634.352295 486.239655,632.807007 
	C483.530151,630.385376 482.565186,627.420532 485.108368,624.522888 
	C487.592468,621.692505 490.672272,622.087097 493.523468,624.335083 
	C494.171631,624.846130 494.738281,625.460632 495.619843,626.272461 
z"/>
<path fill="#000000" opacity="1.000000" stroke="none" 
	d="
M470.887512,637.398315 
	C468.384766,635.161499 466.010345,633.293152 464.073273,631.047607 
	C462.394012,629.100891 462.485840,626.710449 464.119171,624.611267 
	C465.781708,622.474609 468.307587,621.963318 470.411835,623.052185 
	C473.918945,624.867004 477.352722,627.090210 478.422241,631.396484 
	C478.973877,633.617493 480.206848,635.980591 478.079590,637.935364 
	C475.794983,640.034729 473.445343,638.886597 470.887512,637.398315 
z"/>
<path fill="#000000" opacity="1.000000" stroke="none" 
	d="
M575.752319,629.562378 
	C575.602539,626.785706 575.421509,624.273560 578.127380,623.182312 
	C580.783203,622.111267 583.329163,622.536560 585.521362,624.553589 
	C588.233093,627.048706 590.826172,629.561218 591.425232,633.498474 
	C591.689758,635.237305 591.895081,636.847168 590.389648,638.057861 
	C588.805115,639.332153 586.932312,639.492554 585.255127,638.440247 
	C581.633484,636.167969 577.630920,634.263184 575.752319,629.562378 
z"/>
<path fill="#000000" opacity="1.000000" stroke="none" 
	d="
M607.739258,637.877258 
	C602.842896,639.688293 600.164795,636.563293 597.826843,633.662170 
	C595.568726,630.860107 595.969177,626.975464 597.254578,624.146179 
	C598.468384,621.474426 602.128235,622.504028 604.474243,623.098206 
	C608.868408,624.211060 612.539368,632.433594 611.160156,636.789124 
	C610.564270,638.670715 609.408020,638.443665 607.739258,637.877258 
z"/>
<path fill="#000000" opacity="1.000000" stroke="none" 
	d="
M520.864624,634.807068 
	C519.850281,638.156311 517.702454,639.849487 514.779114,638.919556 
	C510.858124,637.672180 506.777313,635.718445 505.910797,631.257996 
	C505.407684,628.668030 504.078094,624.832581 507.251678,623.129639 
	C510.441895,621.417786 513.065125,623.805664 515.478394,626.057678 
	C518.028442,628.437378 520.952759,630.432678 520.864624,634.807068 
z"/>
<path fill="#000000" opacity="1.000000" stroke="none" 
	d="
M537.906555,628.850525 
	C538.171997,631.629761 538.285339,634.108704 538.346130,636.588928 
	C538.361633,637.221008 538.210754,637.857239 538.120667,638.625061 
	C532.827637,640.207886 529.879517,636.482483 526.936523,633.622375 
	C524.441711,631.197815 525.215820,627.453186 526.046082,624.600159 
	C526.989990,621.356445 530.213623,622.293518 532.273376,623.506226 
	C534.360474,624.734924 535.935547,626.833252 537.906555,628.850525 
z"/>
<path fill="#000000" opacity="1.000000" stroke="none" 
	d="
M555.016113,632.319824 
	C555.632690,634.524841 557.738892,636.556702 555.255554,638.366821 
	C553.130371,639.915833 551.154114,638.375793 549.391907,637.168091 
	C545.543030,634.530334 542.658264,631.402466 543.578125,626.144043 
	C543.940979,624.069580 544.534729,622.636902 546.917664,622.811890 
	C550.013916,623.039185 554.863953,628.574036 555.016113,632.319824 
z"/>
<path fill="#000000" opacity="1.000000" stroke="none" 
	d="
M423.692505,630.584656 
	C424.109619,627.726501 422.205719,624.136108 425.366119,623.153687 
	C428.182129,622.278503 429.724457,625.685852 431.368195,627.598450 
	C433.942932,630.594299 433.762421,634.974426 436.947266,637.884338 
	C431.383423,639.728577 426.042847,636.660706 423.692505,630.584656 
z"/>
<path fill="#000000" opacity="1.000000" stroke="none" 
	d="
M564.868469,623.699341 
	C569.949341,627.562561 572.469299,631.998596 570.363708,638.129395 
	C563.639648,637.745972 558.530029,630.255798 560.958191,624.518311 
	C561.755676,622.633850 562.999451,622.611084 564.868469,623.699341 
z"/>
<path fill="#000000" opacity="1.000000" stroke="none" 
	d="
M537.295288,508.941101 
	C539.288513,513.740540 539.091553,518.419617 539.158203,523.076050 
	C539.200623,526.036560 537.793091,527.446045 534.886292,527.177429 
	C529.816345,526.708862 524.731018,526.852234 519.619568,526.221130 
	C515.331177,525.691650 510.305084,527.126221 505.554779,527.117188 
	C496.970673,527.100891 492.539429,522.891052 492.800323,514.433594 
	C492.917542,510.634064 492.144104,506.892944 494.118500,502.860779 
	C495.098389,500.859467 492.585815,496.600342 492.659424,493.067017 
	C492.905731,481.248322 491.380737,482.796692 503.072449,482.681641 
	C511.498260,482.598755 519.926086,482.623596 528.352173,482.695526 
	C534.073303,482.744324 537.914734,486.651062 538.037415,492.405640 
	C538.122803,496.413208 537.768433,500.398285 536.826050,504.290344 
	C536.455139,505.822174 536.213379,507.201447 537.295288,508.941101 
z"/>
</svg>